<svg xmlns="http://www.w3.org/2000/svg" width="173" height="25" viewBox="0 0 173 25" fill="none">
  <path d="M12.3409 10.089C12.017 7.67706 10.0738 6.18558 6.76699 6.18558C3.41756 6.18558 1.21017 7.73672 1.21869 10.2594C1.21017 12.2197 2.44597 13.4896 5.00279 14.0009L7.26983 14.4526C8.41188 14.6827 8.93176 15.1004 8.94881 15.7566C8.93176 16.5322 8.08801 17.0861 6.81813 17.0861C5.52267 17.0861 4.66188 16.5322 4.44029 15.4668L0.869263 15.6543C1.21017 18.16 3.34085 19.7026 6.8096 19.7026C10.2016 19.7026 12.6306 17.9725 12.6392 15.3901C12.6306 13.4981 11.3948 12.3646 8.85506 11.8447L6.48574 11.3674C5.26699 11.1032 4.81529 10.6856 4.82381 10.0549C4.81529 9.27081 5.70165 8.75944 6.82665 8.75944C8.08801 8.75944 8.83801 9.44979 9.01699 10.2935L12.3409 10.089Z" fill="#F8F8F8"/>
  <path d="M14.9254 24.356H18.5561V17.3504H18.6668C19.1697 18.4413 20.2691 19.66 22.3828 19.66C25.3657 19.66 27.6924 17.2992 27.6924 12.9185C27.6924 8.41854 25.2634 6.18558 22.3913 6.18558C20.2009 6.18558 19.1526 7.48956 18.6668 8.5549H18.5049V6.35603H14.9254V24.356ZM18.4793 12.9015C18.4793 10.5663 19.468 9.07479 21.2322 9.07479C23.0305 9.07479 23.985 10.6344 23.985 12.9015C23.985 15.1856 23.0134 16.7708 21.2322 16.7708C19.485 16.7708 18.4793 15.2367 18.4793 12.9015Z" fill="#F8F8F8"/>
  <path d="M33.8458 19.6941C35.7805 19.6941 37.0333 18.8504 37.6725 17.6316H37.7748V19.4469H41.218V10.6174C41.218 7.49808 38.5759 6.18558 35.6612 6.18558C32.5248 6.18558 30.4623 7.68558 29.9595 10.0719L33.3174 10.3447C33.5646 9.47535 34.3401 8.83615 35.6441 8.83615C36.8799 8.83615 37.5873 9.45831 37.5873 10.5322V10.5833C37.5873 11.4271 36.6924 11.5379 34.4168 11.7594C31.8259 11.9981 29.4992 12.8674 29.4992 15.7907C29.4992 18.3816 31.3487 19.6941 33.8458 19.6941ZM34.8856 17.1884C33.7691 17.1884 32.968 16.6685 32.968 15.6714C32.968 14.6487 33.8117 14.1458 35.0901 13.9668C35.8828 13.856 37.1782 13.6685 37.6129 13.3788V14.768C37.6129 16.1401 36.4793 17.1884 34.8856 17.1884Z" fill="#F8F8F8"/>
  <path d="M49.9495 19.7026C53.4353 19.7026 55.6257 17.6572 55.7961 14.6486H52.37C52.1569 16.0464 51.2365 16.8305 49.9921 16.8305C48.2961 16.8305 47.1967 15.4072 47.1967 12.9015C47.1967 10.4299 48.3046 9.01513 49.9921 9.01513C51.3217 9.01513 52.174 9.89297 52.37 11.1969H55.7961C55.6427 8.17138 53.3501 6.18558 49.9325 6.18558C45.9609 6.18558 43.5063 8.93842 43.5063 12.9526C43.5063 16.9327 45.9183 19.7026 49.9495 19.7026Z" fill="#F8F8F8"/>
  <path d="M64.0866 19.7026C67.3252 19.7026 69.507 18.1259 70.0184 15.6969L66.6605 15.4754C66.294 16.4725 65.3565 16.9924 64.1463 16.9924C62.3309 16.9924 61.1803 15.7907 61.1803 13.839V13.8305H70.0951V12.8333C70.0951 8.38445 67.4019 6.18558 63.9417 6.18558C60.0894 6.18558 57.5923 8.92138 57.5923 12.9611C57.5923 17.1117 60.0553 19.7026 64.0866 19.7026ZM61.1803 11.5805C61.257 10.089 62.3906 8.89581 64.0014 8.89581C65.5781 8.89581 66.669 10.0208 66.6775 11.5805H61.1803Z" fill="#F8F8F8"/>
  <path d="M79.4275 6.35603H76.9644V3.21967H73.3338V6.35603H71.544V9.08331H73.3338V15.9015C73.3167 18.4668 75.0639 19.7367 77.6974 19.6259C78.6349 19.5918 79.2997 19.4043 79.6661 19.285L79.0951 16.5833C78.9161 16.6174 78.5326 16.7026 78.1917 16.7026C77.4673 16.7026 76.9644 16.4299 76.9644 15.4242V9.08331H79.4275V6.35603Z" fill="#F8F8F8"/>
  <path d="M81.7926 19.4469H85.4232V12.0407C85.4232 10.4299 86.5994 9.32195 88.2017 9.32195C88.7045 9.32195 89.3948 9.40717 89.7357 9.51797V6.29638C89.4119 6.21967 88.9602 6.16853 88.5937 6.16853C87.1278 6.16853 85.9261 7.02081 85.4488 8.64013H85.3124V6.35603H81.7926V19.4469Z" fill="#F8F8F8"/>
  <path d="M94.9708 19.6941C96.9055 19.6941 98.1583 18.8504 98.7975 17.6316H98.8998V19.4469H102.343V10.6174C102.343 7.49808 99.7009 6.18558 96.7862 6.18558C93.6498 6.18558 91.5873 7.68558 91.0845 10.0719L94.4424 10.3447C94.6896 9.47535 95.4651 8.83615 96.7691 8.83615C98.0049 8.83615 98.7123 9.45831 98.7123 10.5322V10.5833C98.7123 11.4271 97.8174 11.5379 95.5418 11.7594C92.9509 11.9981 90.6242 12.8674 90.6242 15.7907C90.6242 18.3816 92.4737 19.6941 94.9708 19.6941ZM96.0106 17.1884C94.8941 17.1884 94.093 16.6685 94.093 15.6714C94.093 14.6487 94.9367 14.1458 96.2151 13.9668C97.0078 13.856 98.3032 13.6685 98.7379 13.3788V14.768C98.7379 16.1401 97.6043 17.1884 96.0106 17.1884Z" fill="#F8F8F8"/>
  <path d="M116.896 6.35603H113.052L110.342 15.7225H110.205L107.486 6.35603H103.651L108.228 19.4469H112.319L116.896 6.35603Z" fill="#F8F8F8"/>
  <path d="M124.274 19.7026C127.513 19.7026 129.695 18.1259 130.206 15.6969L126.848 15.4754C126.481 16.4725 125.544 16.9924 124.334 16.9924C122.518 16.9924 121.368 15.7907 121.368 13.839V13.8305H130.283V12.8333C130.283 8.38445 127.589 6.18558 124.129 6.18558C120.277 6.18558 117.78 8.92138 117.78 12.9611C117.78 17.1117 120.243 19.7026 124.274 19.7026ZM121.368 11.5805C121.445 10.089 122.578 8.89581 124.189 8.89581C125.766 8.89581 126.856 10.0208 126.865 11.5805H121.368Z" fill="#F8F8F8"/>
  <path d="M136.283 1.9924H132.652V19.4469H136.283V1.9924Z" fill="#F8F8F8"/>
  <path d="M139.191 19.4469H142.822V6.35603H139.191V19.4469ZM141.015 4.66853C142.097 4.66853 142.984 3.84183 142.984 2.82763C142.984 1.82194 142.097 0.995239 141.015 0.995239C139.941 0.995239 139.055 1.82194 139.055 2.82763C139.055 3.84183 139.941 4.66853 141.015 4.66853Z" fill="#F8F8F8"/>
  <path d="M149.361 11.8788C149.369 10.1913 150.375 9.20263 151.841 9.20263C153.298 9.20263 154.176 10.1572 154.168 11.7594V19.4469H157.798V11.1117C157.798 8.06058 156.008 6.18558 153.281 6.18558C151.338 6.18558 149.932 7.14013 149.344 8.66569H149.19V6.35603H145.73V19.4469H149.361V11.8788Z" fill="#F8F8F8"/>
  <path d="M166.557 24.6288C170.299 24.6288 172.958 22.9242 172.958 19.5748V6.35603H169.353V8.5549H169.217C168.731 7.48956 167.665 6.18558 165.475 6.18558C162.603 6.18558 160.174 8.41854 160.174 12.8759C160.174 17.231 162.535 19.2594 165.484 19.2594C167.572 19.2594 168.739 18.2111 169.217 17.1288H169.37V19.5236C169.37 21.3219 168.219 22.0208 166.643 22.0208C165.04 22.0208 164.231 21.3219 163.932 20.5293L160.575 20.981C161.009 23.0435 163.029 24.6288 166.557 24.6288ZM166.634 16.5322C164.853 16.5322 163.881 15.1174 163.881 12.8589C163.881 10.6344 164.836 9.07479 166.634 9.07479C168.398 9.07479 169.387 10.5663 169.387 12.8589C169.387 15.1685 168.381 16.5322 166.634 16.5322Z" fill="#F8F8F8"/>
</svg>
